<!-- assets/bus.svg -->
<svg xmlns="http://www.w3.org/2000/svg" viewBox="0 0 200 100">
  <defs>
    <linearGradient id="g1" x1="0" x2="1" y1="0" y2="1">
      <stop offset="0" stop-color="#a78bfa"/>
      <stop offset="1" stop-color="#8b5cf6"/>
    </linearGradient>
  </defs>
  <path fill="url(#g1)" d="M10 30 C5 30 0 35 0 40 L0 80 C0 85 5 90 10 90 L30 90 L30 95 C30 98 32 100 35 100 L45 100 C48 100 50 98 50 95 L50 90 L130 90 L130 95 C130 98 132 100 135 100 L145 100 C148 100 150 98 150 95 L150 90 L170 90 C175 90 180 85 180 80 L180 70 L195 45 C198 40 200 35 195 30 L10 30 Z"/>
  <rect x="15" y="40" width="40" height="25" rx="5" fill="#3730a3" opacity="0.8"/>
  <rect x="65" y="40" width="40" height="25" rx="5" fill="#3730a3" opacity="0.8"/>
  <rect x="115" y="40" width="40" height="25" rx="5" fill="#3730a3" opacity="0.8"/>
  <circle cx="40" cy="90" r="10" fill="#111827"/>
  <circle cx="140" cy="90" r="10" fill="#111827"/>
  <circle cx="190" cy="75" r="4" fill="#facc15"/>
</svg>
